<svg width="30" height="30" viewBox="0 0 30 30" fill="none" xmlns="http://www.w3.org/2000/svg">
<g id="play-back">
<path id="Vector" d="M2.43579 13.5552L13.063 7.19694C13.3259 7.03697 13.627 6.95054 13.9347 6.94668C14.2424 6.94282 14.5455 7.02167 14.8124 7.17499C15.1019 7.34359 15.3416 7.58581 15.5073 7.87704C15.6729 8.16828 15.7585 8.49817 15.7554 8.83319V13.2811L25.924 7.19525C26.187 7.03528 26.488 6.94885 26.7957 6.94499C27.1034 6.94113 27.4066 7.01998 27.6734 7.1733C27.9629 7.3419 28.2027 7.58412 28.3683 7.87536C28.5339 8.16659 28.6196 8.49648 28.6164 8.8315V21.2666C28.6197 21.6017 28.5342 21.9318 28.3685 22.2231C28.2029 22.5145 27.9631 22.7568 27.6734 22.9254C27.4066 23.0787 27.1034 23.1575 26.7957 23.1537C26.488 23.1498 26.187 23.0634 25.924 22.9034L15.7554 16.8147V21.2643C15.7591 21.5999 15.6737 21.9303 15.5081 22.2221C15.3424 22.5139 15.1024 22.7566 14.8124 22.9254C14.5455 23.0787 14.2424 23.1575 13.9347 23.1537C13.627 23.1498 13.3259 23.0634 13.063 22.9034L2.43579 16.5452C2.18315 16.3869 1.97486 16.1671 1.83048 15.9063C1.6861 15.6455 1.61035 15.3522 1.61035 15.0541C1.61035 14.756 1.6861 14.4628 1.83048 14.202C1.97486 13.9411 2.18315 13.7213 2.43579 13.563V13.5552Z" fill="#E1E1E6"/>
</g>
</svg>
